<?xml version="1.0" ?><svg id="Layer_1" style="enable-background:new 0 0 128 128;" version="1.1" viewBox="0 0 128 128" xml:space="preserve" xmlns="http://www.w3.org/2000/svg" xmlns:xlink="http://www.w3.org/1999/xlink"><style type="text/css">
	.st0{opacity:0.2;fill:#FFFFFF;}
	.st1{fill:#FFFFFF;}
	.st2{fill:none;stroke:#242C88;stroke-width:2;stroke-linecap:round;stroke-linejoin:round;stroke-miterlimit:10;}
	.st3{fill:#5E61A3;}
	.st4{opacity:0.5;fill:#242C88;}
	.st5{fill:#39C89A;}
	.st6{fill:#CAEAFB;}
	.st7{fill:#589FFF;}
	.st8{fill:#FF5751;}
	.st9{fill:#BC8D66;}
	.st10{opacity:0.7;fill:#FFFFFF;}
	.st11{fill:#F1C92A;}
	.st12{opacity:0.4;fill:none;stroke:#FFFFFF;stroke-width:2;stroke-linecap:round;stroke-linejoin:round;stroke-miterlimit:10;}
	.st13{fill:#F3877E;}
	.st14{fill:#83D689;}
	.st15{opacity:0.4;fill:#242C88;}
	.st16{opacity:0.2;fill:#242C88;}
	
		.st17{fill:none;stroke:#FFFFFF;stroke-width:3;stroke-linecap:round;stroke-linejoin:round;stroke-miterlimit:10;stroke-dasharray:0.1,6;}
	.st18{fill:#FFC408;}
	
		.st19{opacity:0.4;fill:none;stroke:#FFFFFF;stroke-width:3;stroke-linecap:round;stroke-linejoin:round;stroke-miterlimit:10;stroke-dasharray:0.1,6;}
	.st20{fill:none;stroke:#CAEAFB;stroke-width:12;stroke-linecap:round;stroke-miterlimit:10;}
	.st21{fill:none;stroke:#CAEAFB;stroke-width:7;stroke-linecap:round;stroke-miterlimit:10;}
	.st22{opacity:0.4;fill:none;stroke:#242C88;stroke-width:2;stroke-linecap:round;stroke-linejoin:round;stroke-miterlimit:10;}
	.st23{opacity:0.5;}
	.st24{fill:#242C88;}
	
		.st25{fill:none;stroke:#242C88;stroke-width:3;stroke-linecap:round;stroke-linejoin:round;stroke-miterlimit:10;stroke-dasharray:0.1,6;}
	.st26{opacity:0.5;fill:#FFFFFF;}
	.st27{fill:none;stroke:#FFFFFF;stroke-width:3;stroke-linecap:round;stroke-linejoin:round;stroke-miterlimit:10;}
	.st28{fill:none;stroke:#FFFFFF;stroke-width:2;stroke-linecap:round;stroke-linejoin:round;stroke-miterlimit:10;}
	.st29{fill:#E5BD9E;}
	.st30{fill:#A06D47;}
	
		.st31{opacity:0.3;fill:none;stroke:#FFFFFF;stroke-width:3;stroke-linecap:round;stroke-linejoin:round;stroke-miterlimit:10;stroke-dasharray:0.1,6;}
	.st32{opacity:0.1;fill:#242C88;}
	.st33{opacity:0.5;fill:#FF5751;}
	.st34{opacity:0.2;fill:none;stroke:#242C88;stroke-width:2;stroke-linecap:round;stroke-linejoin:round;stroke-miterlimit:10;}
	.st35{opacity:0.3;clip-path:url(#SVGID_2_);}
	
		.st36{fill:none;stroke:#FFFFFF;stroke-width:3;stroke-linecap:round;stroke-linejoin:round;stroke-miterlimit:10;stroke-dasharray:0,6;}
	
		.st37{opacity:0.3;fill:none;stroke:#FFFFFF;stroke-width:3;stroke-linecap:round;stroke-linejoin:round;stroke-miterlimit:10;stroke-dasharray:0,6;}
	.st38{clip-path:url(#SVGID_4_);}
	.st39{opacity:0.2;fill:none;stroke:#242C88;stroke-width:9;stroke-linecap:round;stroke-linejoin:round;stroke-miterlimit:10;}
	.st40{opacity:0.3;}
	.st41{opacity:0.4;fill:#FFFFFF;}
	.st42{opacity:0.5;fill:#CAEAFB;}
	.st43{opacity:0.6;fill:#242C88;}
	.st44{opacity:0.5;fill:none;stroke:#242C88;stroke-width:2;stroke-linecap:round;stroke-linejoin:round;stroke-miterlimit:10;}
	.st45{opacity:0.3;fill:#242C88;}
	.st46{opacity:0.2;}
	
		.st47{clip-path:url(#SVGID_6_);fill:none;stroke:#242C88;stroke-width:2;stroke-linecap:round;stroke-linejoin:round;stroke-miterlimit:10;}
	.st48{opacity:0.2;fill:none;stroke:#FFFFFF;stroke-width:8;stroke-linecap:round;stroke-linejoin:round;stroke-miterlimit:10;}
	.st49{clip-path:url(#SVGID_8_);fill:#FFFFFF;}
	
		.st50{clip-path:url(#SVGID_8_);fill:none;stroke:#242C88;stroke-width:2;stroke-linecap:round;stroke-linejoin:round;stroke-miterlimit:10;}
	.st51{opacity:0.2;clip-path:url(#SVGID_8_);fill:#242C88;}
	
		.st52{opacity:0.2;clip-path:url(#SVGID_8_);fill:none;stroke:#242C88;stroke-width:2;stroke-linecap:round;stroke-linejoin:round;stroke-miterlimit:10;}
	.st53{fill:none;stroke:#242C88;stroke-width:1.848;stroke-linecap:round;stroke-linejoin:round;stroke-miterlimit:10;}
	.st54{opacity:0.4;fill:none;stroke:#FFFFFF;stroke-width:7;stroke-linecap:round;stroke-linejoin:round;stroke-miterlimit:10;}
	.st55{opacity:0.2;fill:none;stroke:#242C88;stroke-width:7;stroke-linecap:round;stroke-linejoin:round;stroke-miterlimit:10;}
	.st56{opacity:7.000000e-02;fill:#242C88;}
	.st57{fill:none;stroke:#FFFFFF;stroke-width:4;stroke-linecap:round;stroke-linejoin:round;stroke-miterlimit:10;}
	.st58{opacity:0.4;fill:none;stroke:#FFFFFF;stroke-width:8;stroke-linecap:round;stroke-linejoin:round;stroke-miterlimit:10;}
	.st59{opacity:0.2;fill:none;stroke:#242C88;stroke-width:8;stroke-linecap:round;stroke-linejoin:round;stroke-miterlimit:10;}
	.st60{fill:none;stroke:#FF5751;stroke-width:4;stroke-linecap:round;stroke-linejoin:round;stroke-miterlimit:10;}
	.st61{fill:none;stroke:#242C88;stroke-width:4;stroke-linecap:round;stroke-linejoin:round;stroke-miterlimit:10;}
</style><rect class="st1" height="83" width="68" x="11" y="17"/><rect class="st2" height="83" width="68" x="11" y="17"/><path class="st14" d="M33,46H23c-1.1,0-2-0.9-2-2V34c0-1.1,0.9-2,2-2h10c1.1,0,2,0.9,2,2v10C35,45.1,34.1,46,33,46z"/><path class="st14" d="M32.8,66H23c-1.1,0-2-0.9-2-2V54c0-1.1,0.9-2,2-2h10c1.1,0,2,0.9,2,2v9.8C35,65,34,66,32.8,66z"/><path class="st14" d="M33,87H23c-1.1,0-2-0.9-2-2V75c0-1.1,0.9-2,2-2h10c1.1,0,2,0.9,2,2v10C35,86.1,34.1,87,33,87z"/><path class="st2" d="M33,46H23c-1.1,0-2-0.9-2-2V34c0-1.1,0.9-2,2-2h10c1.1,0,2,0.9,2,2v10C35,45.1,34.1,46,33,46z"/><path class="st2" d="M32.8,66H23c-1.1,0-2-0.9-2-2V54c0-1.1,0.9-2,2-2h10c1.1,0,2,0.9,2,2v9.8C35,65,34,66,32.8,66z"/><path class="st2" d="M33,87H23c-1.1,0-2-0.9-2-2V75c0-1.1,0.9-2,2-2h10c1.1,0,2,0.9,2,2v10C35,86.1,34.1,87,33,87z"/><path class="st16" d="M79,101V24H28c-1.1,0-2,0.9-2,2v75H79z"/><rect class="st1" height="83" width="68" x="31" y="29"/><rect class="st2" height="83" width="68" x="31" y="29"/><line class="st34" x1="63" x2="75" y1="53" y2="53"/><line class="st34" x1="63" x2="87" y1="48" y2="48"/><path class="st14" d="M54,58H44c-1.1,0-2-0.9-2-2V46c0-1.1,0.9-2,2-2h10c1.1,0,2,0.9,2,2v10C56,57.1,55.1,58,54,58z"/><polyline class="st2" points="45.3,51.7 48.2,54.4 53.9,48.6 "/><line class="st34" x1="63" x2="75" y1="74" y2="74"/><line class="st34" x1="63" x2="87" y1="68" y2="68"/><path class="st14" d="M54,78H44c-1.1,0-2-0.9-2-2V66c0-1.1,0.9-2,2-2h9.8c1.2,0,2.2,1,2.2,2.2V76C56,77.1,55.1,78,54,78z"/><polyline class="st2" points="45.3,71.9 48.2,74.6 53.9,68.9 "/><line class="st34" x1="63" x2="75" y1="94" y2="94"/><line class="st34" x1="63" x2="87" y1="89" y2="89"/><path class="st14" d="M54,98H44c-1.1,0-2-0.9-2-2V86c0-1.1,0.9-2,2-2h10c1.1,0,2,0.9,2,2v10C56,97.1,55.1,98,54,98z"/><path class="st2" d="M54,58H44c-1.1,0-2-0.9-2-2V46c0-1.1,0.9-2,2-2h10c1.1,0,2,0.9,2,2v10C56,57.1,55.1,58,54,58z"/><path class="st2" d="M54,78H44c-1.1,0-2-0.9-2-2V66c0-1.1,0.9-2,2-2h9.8c1.2,0,2.2,1,2.2,2.2V76C56,77.1,55.1,78,54,78z"/><path class="st2" d="M54,98H44c-1.1,0-2-0.9-2-2V86c0-1.1,0.9-2,2-2h10c1.1,0,2,0.9,2,2v10C56,97.1,55.1,98,54,98z"/><polygon class="st16" points="99,57.6 65.2,77.5 53.6,94.9 74.4,93.1 99,78.6 "/><g><polygon class="st1" points="111.4,50.1 73.8,87.7 54.1,94.6 61,74.9 98.6,37.3  "/><rect class="st18" height="18.1" transform="matrix(0.7071 -0.7071 0.7071 0.7071 -18.9596 79.2808)" width="53.2" x="59.6" y="53.5"/><rect class="st16" height="5.3" transform="matrix(0.7071 -0.7071 0.7071 0.7071 -20.8293 83.7946)" width="53.2" x="64.1" y="64.4"/><polygon class="st3" points="57.1,86 54.1,94.4 62.5,91.4  "/><polygon class="st2" points="111.4,50.1 73.8,87.7 54.1,94.6 61,74.9 98.6,37.3  "/><path class="st13" d="M111.4,50.1l6-6c1.7-1.7,1.7-4.4,0-6l-6.8-6.8c-1.7-1.7-4.4-1.7-6,0l-6,6L111.4,50.1z"/><path class="st2" d="M111.4,50.1l6-6c1.7-1.7,1.7-4.4,0-6l-6.8-6.8c-1.7-1.7-4.4-1.7-6,0l-6,6L111.4,50.1z"/><line class="st2" x1="80.6" x2="106.9" y1="73.4" y2="47.1"/><line class="st2" x1="70" x2="76.1" y1="84" y2="77.9"/><rect class="st1" height="18.1" transform="matrix(0.7071 -0.7071 0.7071 0.7071 -0.5282 86.9153)" width="7.4" x="100.9" y="35.1"/><rect class="st16" height="18.1" transform="matrix(0.7071 -0.7071 0.7071 0.7071 -0.5282 86.9153)" width="7.4" x="100.9" y="35.1"/><rect class="st2" height="18.1" transform="matrix(0.7071 -0.7071 0.7071 0.7071 -0.5282 86.9153)" width="7.4" x="100.9" y="35.1"/></g></svg>