<?xml version="1.0" encoding="UTF-8"?>
<svg width="53px" height="68px" viewBox="0 0 53 68" version="1.1" xmlns="http://www.w3.org/2000/svg" xmlns:xlink="http://www.w3.org/1999/xlink">
    <!-- Generator: sketchtool 45.2 (43514) - http://www.bohemiancoding.com/sketch -->
    <title>3A9E8334-0C75-49BC-BF04-6493AF4F3708</title>
    <desc>Created with sketchtool.</desc>
    <defs>
        <rect id="path-1" x="0" y="7" width="50.9259259" height="54.7774121" rx="11"></rect>
        <rect id="path-2" x="17" y="1" width="33.3952641" height="11.7696172" rx="5.88480859"></rect>
        <path d="M17,59.8848086 C17,56.6347186 19.6344117,54 22.8935299,54 L44.5017342,54 C47.7566409,54 50.3952641,56.6413318 50.3952641,59.8848086 L50.3952641,59.8848086 C50.3952641,63.1348986 47.7611477,65.7696172 44.508251,65.7696172 L28.0998817,65.7696172 L22.8749673,65.7696172 C19.6303125,65.7696172 17,63.1282854 17,59.8848086 L17,59.8848086 Z" id="path-3"></path>
        <rect id="path-4" x="38.0613236" y="0" width="14" height="67.1752988" rx="7"></rect>
    </defs>
    <g id="Symbols" stroke="none" stroke-width="1" fill="none" fill-rule="evenodd">
        <g id="koltuk-yeşil">
            <g id="Group-5">
                <g id="Rectangle-9-Copy">
                    <use fill="#FFFFFF" fill-rule="evenodd" xlink:href="#path-1"></use>
                    <rect stroke="#DFDEDF" stroke-width="1" x="0.5" y="7.5" width="49.9259259" height="53.7774121" rx="11"></rect>
                </g>
                <g id="Rectangle-10-Copy-2">
                    <use fill="#FFFFFF" fill-rule="evenodd" xlink:href="#path-2"></use>
                    <rect stroke="#DFDEDF" stroke-width="1" x="17.5" y="1.5" width="32.3952641" height="10.7696172" rx="5.38480859"></rect>
                </g>
                <g id="Rectangle-10-Copy-4">
                    <use fill="#FFFFFF" fill-rule="evenodd" xlink:href="#path-3"></use>
                    <path stroke="#DFDEDF" stroke-width="1" d="M17.5,59.8848086 C17.5,62.8547008 19.9090078,65.2696172 22.8749673,65.2696172 L44.508251,65.2696172 C47.4844775,65.2696172 49.8952641,62.8592839 49.8952641,59.8848086 C49.8952641,56.9152691 47.4782918,54.5 44.5017342,54.5 L22.8935299,54.5 C19.9118981,54.5 17.5,56.9095184 17.5,59.8848086 Z"></path>
                </g>
                <g id="Rectangle-11">
                    <use fill="#FFFFFF" fill-rule="evenodd" xlink:href="#path-4"></use>
                    <rect stroke="#DFDEDF" stroke-width="1" x="38.5613236" y="0.5" width="13" height="66.1752988" rx="6.5"></rect>
                </g>
            </g>
        </g>
    </g>
</svg>